<svg id="Layer_1" data-name="Layer 1" xmlns="http://www.w3.org/2000/svg" width="985" height="433" viewBox="0 0 985 433">
  <defs>
    <style>
      .cls-1, .cls-2 {
        fill: #fff;
      }

      .cls-1, .cls-4 {
        stroke: #231f20;
        stroke-miterlimit: 10;
        stroke-width: 2px;
      }

      .cls-3 {
        fill: #231f20;
      }

      .cls-4 {
        fill: none;
      }
    </style>
  </defs>
  <title>diagramma</title>
  <rect class="cls-1" x="1" y="133" width="151" height="57" rx="24" ry="24"/>
  <rect class="cls-1" x="1" y="375" width="151" height="57" rx="24" ry="24"/>
  <g>
    <polygon class="cls-2" points="413.06 161.5 329.71 121.14 246.36 161.5 329.71 201.86 413.06 161.5"/>
    <path class="cls-3" d="M351.71,220,266,178.5,351.71,137l85.71,41.5Zm-81-41.5,81,39.22,81-39.22-81-39.22Z" transform="translate(-22 -17)"/>
  </g>
  <rect class="cls-1" x="833" y="133" width="151" height="57"/>
  <rect class="cls-1" x="488" y="103" width="42" height="218"/>
  <rect class="cls-1" x="530" y="103" width="42" height="218"/>
  <rect class="cls-1" x="572" y="103" width="42" height="218"/>
  <rect class="cls-1" x="614" y="103" width="42" height="218"/>
  <rect class="cls-1" x="656" y="103" width="42" height="218"/>
  <rect class="cls-1" x="698" y="103" width="42" height="218"/>
  <g>
    <rect class="cls-1" x="509" y="321" width="42" height="33"/>
    <rect class="cls-1" x="551" y="321" width="42" height="33"/>
    <rect class="cls-1" x="593" y="321" width="42" height="33"/>
    <rect class="cls-1" x="635" y="321" width="42" height="33"/>
    <rect class="cls-1" x="677" y="321" width="42" height="33"/>
  </g>
  <rect class="cls-1" x="615" y="-27" width="42" height="252" transform="translate(515 718) rotate(-90)"/>
  <line class="cls-4" x1="614" y1="354" x2="614" y2="403"/>
  <path class="cls-4" d="M174,421" transform="translate(-22 -17)"/>
  <path class="cls-4" d="M930.5,207" transform="translate(-22 -17)"/>
  <polyline class="cls-4" points="152 404 908.5 404 908.5 190"/>
  <line class="cls-4" x1="740" y1="161.5" x2="833" y2="161.5"/>
  <line class="cls-4" x1="488" y1="161.5" x2="413.06" y2="161.5"/>
  <line class="cls-4" x1="248.71" y1="161.5" x2="152" y2="161.5"/>
  <polyline class="cls-4" points="329.71 122.28 329.71 1 908.5 1 908.5 133"/>
  <g>
    <path d="M362.21,83V71.54h2.38l3,4.91a31.33,31.33,0,0,1,2,3.84h0c-.14-1.53-.19-3-.19-4.76v-4h1.94V83h-2.16l-3-5a39.69,39.69,0,0,1-2.06-4L364,74c.08,1.48.1,3,.1,4.88V83Z" transform="translate(-22 -17)"/>
    <path d="M383.86,77.15c0,3.84-2.33,6-5.49,6s-5.27-2.46-5.27-5.83c0-3.52,2.21-6,5.44-6S383.86,73.89,383.86,77.15Zm-8.55.17c0,2.33,1.17,4.18,3.18,4.18s3.16-1.87,3.16-4.27c0-2.16-1.07-4.2-3.16-4.2S375.31,75,375.31,77.32Z" transform="translate(-22 -17)"/>
  </g>
  <g>
    <path d="M452.81,167v-4.78l-3.62-6.68h2.38l1.38,2.94c.39.85.68,1.5,1,2.28h0c.29-.73.61-1.45,1-2.28l1.38-2.94h2.36l-3.81,6.63V167Z" transform="translate(-22 -17)"/>
    <path d="M466.17,161.92h-4.32v3.37h4.83V167h-6.92V155.54h6.66v1.72h-4.57v3h4.32Z" transform="translate(-22 -17)"/>
    <path d="M468.47,164.72a5.79,5.79,0,0,0,2.77.73c1.34,0,2.09-.63,2.09-1.56s-.58-1.38-2-1.9c-1.89-.68-3.09-1.68-3.09-3.33,0-1.87,1.56-3.3,4-3.3a6,6,0,0,1,2.75.58l-.51,1.68a4.84,4.84,0,0,0-2.28-.54c-1.33,0-1.9.71-1.9,1.38,0,.88.66,1.29,2.19,1.89,2,.75,3,1.75,3,3.4,0,1.84-1.39,3.43-4.35,3.43a6.8,6.8,0,0,1-3.09-.71Z" transform="translate(-22 -17)"/>
  </g>
  <g>
    <path d="M890.85,182a5.79,5.79,0,0,0,2.77.73c1.34,0,2.09-.63,2.09-1.56s-.58-1.38-2-1.9c-1.89-.68-3.09-1.68-3.09-3.33,0-1.87,1.56-3.3,4-3.3a6,6,0,0,1,2.75.58l-.51,1.68a4.84,4.84,0,0,0-2.28-.54c-1.33,0-1.9.71-1.9,1.38,0,.88.66,1.29,2.19,1.89,2,.75,3,1.75,3,3.4,0,1.84-1.39,3.43-4.35,3.43a6.8,6.8,0,0,1-3.09-.71Z" transform="translate(-22 -17)"/>
    <path d="M899.38,172.77h2.09v9.71h4.71v1.75h-6.8Z" transform="translate(-22 -17)"/>
    <path d="M916.93,178.38c0,3.84-2.33,6-5.49,6s-5.27-2.46-5.27-5.83c0-3.52,2.21-6,5.44-6S916.93,175.12,916.93,178.38Zm-8.55.17c0,2.33,1.17,4.18,3.18,4.18s3.16-1.87,3.16-4.27c0-2.16-1.07-4.2-3.16-4.2S908.37,176.19,908.37,178.55Z" transform="translate(-22 -17)"/>
    <path d="M920.19,184.23l-2.8-11.46h2.23l1.09,5.2c.29,1.39.56,2.86.75,4h0c.19-1.21.51-2.57.83-4l1.24-5.18h2.19l1.14,5.27c.29,1.36.53,2.63.7,3.88h0c.2-1.26.48-2.57.78-4l1.19-5.18h2.13l-3.08,11.46h-2.24l-1.19-5.39a32.56,32.56,0,0,1-.63-3.64h0c-.2,1.22-.42,2.33-.76,3.64l-1.33,5.39Z" transform="translate(-22 -17)"/>
    <path d="M935.95,172.92a18.14,18.14,0,0,1,3.2-.24,5.19,5.19,0,0,1,3.38.93,3.24,3.24,0,0,1,1.12,2.53,3.47,3.47,0,0,1-1,2.6A5.05,5.05,0,0,1,939,180a5.93,5.93,0,0,1-1-.07v4.32h-2.07Zm2.07,5.34a4.21,4.21,0,0,0,1,.08c1.56,0,2.52-.76,2.52-2.11s-.88-2-2.33-2a5.79,5.79,0,0,0-1.21.1Z" transform="translate(-22 -17)"/>
    <path d="M946.2,181l-1,3.25h-2.16l3.67-11.46h2.67l3.72,11.46h-2.24l-1-3.25Zm3.28-1.58-.9-2.82c-.22-.7-.41-1.48-.58-2.14h0c-.17.66-.34,1.46-.54,2.14l-.88,2.82Z" transform="translate(-22 -17)"/>
    <path d="M955.19,174.52h-3.26v-1.75h8.65v1.75h-3.3v9.71h-2.09Z" transform="translate(-22 -17)"/>
    <path d="M963.68,172.77v4.59h4.84v-4.59h2.09v11.46h-2.09v-5h-4.84v5h-2.09V172.77Z" transform="translate(-22 -17)"/>
  </g>
  <g>
    <path d="M302.54,172.78v4.59h4.84v-4.59h2.09v11.46h-2.09v-5h-4.84v5h-2.09V172.78Z" transform="translate(-22 -17)"/>
    <path d="M313.83,181l-1,3.25h-2.16l3.67-11.46H317l3.72,11.46h-2.24l-1-3.25Zm3.28-1.58-.9-2.82c-.22-.7-.41-1.48-.58-2.14h0c-.17.66-.34,1.46-.54,2.14l-.88,2.82Z" transform="translate(-22 -17)"/>
    <path d="M322,182a5.79,5.79,0,0,0,2.77.73c1.34,0,2.09-.63,2.09-1.56s-.58-1.38-2-1.9c-1.89-.68-3.09-1.68-3.09-3.33,0-1.87,1.56-3.3,4-3.3a6,6,0,0,1,2.75.58l-.51,1.68a4.84,4.84,0,0,0-2.28-.54c-1.33,0-1.9.71-1.9,1.38,0,.88.66,1.29,2.19,1.89,2,.75,3,1.75,3,3.4,0,1.84-1.39,3.43-4.35,3.43a6.8,6.8,0,0,1-3.09-.71Z" transform="translate(-22 -17)"/>
    <path d="M333.67,172.78h6.61v1.72h-4.52v3.16H340v1.72h-4.22v4.86h-2.09Z" transform="translate(-22 -17)"/>
    <path d="M343.05,181l-1,3.25h-2.16l3.67-11.46h2.67L350,184.24h-2.24l-1-3.25Zm3.28-1.58-.9-2.82c-.22-.7-.41-1.48-.58-2.14h0c-.17.66-.34,1.46-.54,2.14l-.88,2.82Z" transform="translate(-22 -17)"/>
    <path d="M351.18,182a5.79,5.79,0,0,0,2.77.73c1.34,0,2.09-.63,2.09-1.56s-.58-1.38-2-1.9c-1.89-.68-3.09-1.68-3.09-3.33,0-1.87,1.56-3.3,4-3.3a6,6,0,0,1,2.75.58l-.51,1.68a4.84,4.84,0,0,0-2.28-.54c-1.33,0-1.9.71-1.9,1.38,0,.88.66,1.29,2.19,1.89,2,.75,3,1.75,3,3.4,0,1.84-1.39,3.43-4.35,3.43a6.8,6.8,0,0,1-3.09-.71Z" transform="translate(-22 -17)"/>
    <path d="M361.91,174.53h-3.26v-1.75h8.65v1.75H364v9.71h-2.09Z" transform="translate(-22 -17)"/>
    <path d="M368.3,172.93a18.15,18.15,0,0,1,3.2-.24,5.19,5.19,0,0,1,3.38.93,3.24,3.24,0,0,1,1.12,2.53,3.47,3.47,0,0,1-1,2.6,5.05,5.05,0,0,1-3.62,1.22,5.93,5.93,0,0,1-1-.07v4.32H368.3Zm2.07,5.34a4.21,4.21,0,0,0,1,.08c1.56,0,2.52-.76,2.52-2.11s-.88-2-2.33-2a5.79,5.79,0,0,0-1.21.1Z" transform="translate(-22 -17)"/>
    <path d="M378.55,181l-1,3.25h-2.16l3.67-11.46h2.67l3.72,11.46h-2.24l-1-3.25Zm3.28-1.58-.9-2.82c-.22-.7-.41-1.48-.58-2.14h0c-.17.66-.34,1.46-.54,2.14l-.88,2.82Z" transform="translate(-22 -17)"/>
    <path d="M387.54,174.53h-3.26v-1.75h8.65v1.75h-3.3v9.71h-2.09Z" transform="translate(-22 -17)"/>
    <path d="M396,172.78v4.59h4.84v-4.59H403v11.46h-2.09v-5H396v5h-2.09V172.78Z" transform="translate(-22 -17)"/>
  </g>
  <g>
    <path d="M587.32,93.28h6.61V95h-4.52v3.16h4.22v1.72h-4.22v4.86h-2.09Z" transform="translate(-22 -17)"/>
    <path d="M595.63,93.43a18.15,18.15,0,0,1,3.2-.24,5.19,5.19,0,0,1,3.38.93,3.24,3.24,0,0,1,1.12,2.53,3.47,3.47,0,0,1-1,2.6,5.05,5.05,0,0,1-3.62,1.22,5.93,5.93,0,0,1-1-.07v4.32h-2.07Zm2.07,5.34a4.21,4.21,0,0,0,1,.08c1.56,0,2.52-.76,2.52-2.11s-.88-2-2.33-2a5.79,5.79,0,0,0-1.21.1Z" transform="translate(-22 -17)"/>
    <path d="M610.07,93.28v4.59h4.84V93.28H617v11.46h-2.09v-5h-4.84v5H608V93.28Z" transform="translate(-22 -17)"/>
    <path d="M621.35,101.49l-1,3.25h-2.16l3.67-11.46h2.67l3.72,11.46H626l-1-3.25Zm3.28-1.58-.9-2.82c-.22-.7-.41-1.48-.58-2.14h0c-.17.66-.34,1.46-.54,2.14l-.88,2.82Z" transform="translate(-22 -17)"/>
    <path d="M629.53,104.74V93.28h2.38l3,4.91a31.33,31.33,0,0,1,2,3.84h0c-.14-1.53-.19-3-.19-4.76v-4h1.94v11.46h-2.16l-3-5a39.69,39.69,0,0,1-2.06-4l-.05,0c.08,1.48.1,3,.1,4.88v4.1Z" transform="translate(-22 -17)"/>
    <path d="M640.68,93.43a21.06,21.06,0,0,1,3.33-.24,7,7,0,0,1,4.67,1.33,5.12,5.12,0,0,1,1.79,4.22,5.93,5.93,0,0,1-1.79,4.55,7.65,7.65,0,0,1-5.18,1.56,22.82,22.82,0,0,1-2.82-.15Zm2.09,9.71a7.81,7.81,0,0,0,1.16.05c2.72,0,4.33-1.48,4.33-4.39,0-2.53-1.45-4-4.06-4a6.66,6.66,0,0,0-1.43.12Z" transform="translate(-22 -17)"/>
    <path d="M652,93.28H654V103h4.71v1.75H652Z" transform="translate(-22 -17)"/>
    <path d="M666.4,99.65h-4.32V103h4.83v1.72H660V93.28h6.66V95h-4.57v3h4.32Z" transform="translate(-22 -17)"/>
    <path d="M668.41,93.43a19.87,19.87,0,0,1,3.16-.24,5.31,5.31,0,0,1,3.54.92,2.9,2.9,0,0,1,1,2.29A3.06,3.06,0,0,1,674,99.28v.05a2.92,2.92,0,0,1,1.6,2.21,22.89,22.89,0,0,0,.9,3.2h-2.16a16.11,16.11,0,0,1-.76-2.7c-.32-1.5-.87-2-2.06-2h-1.05v4.71h-2.07Zm2.07,5.07h1.24c1.41,0,2.29-.75,2.29-1.89s-.88-1.84-2.24-1.84a6,6,0,0,0-1.29.1Z" transform="translate(-22 -17)"/>
    <path d="M677.69,102.46a5.79,5.79,0,0,0,2.77.73c1.34,0,2.09-.63,2.09-1.56s-.58-1.38-2-1.9c-1.89-.68-3.09-1.68-3.09-3.33,0-1.87,1.56-3.3,4-3.3a6,6,0,0,1,2.75.58l-.51,1.68a4.84,4.84,0,0,0-2.28-.54c-1.33,0-1.9.71-1.9,1.38,0,.88.66,1.29,2.19,1.89,2,.75,3,1.75,3,3.4,0,1.84-1.39,3.43-4.35,3.43a6.8,6.8,0,0,1-3.09-.71Z" transform="translate(-22 -17)"/>
  </g>
  <g>
    <path d="M525.28,267.79v-6.61H527v4.52h3.16v-4.22h1.72v4.22h4.86v2.09Z" transform="translate(-22 -17)"/>
    <path d="M525.43,259.48a18.05,18.05,0,0,1-.24-3.2,5.19,5.19,0,0,1,.93-3.38,3.24,3.24,0,0,1,2.53-1.12,3.47,3.47,0,0,1,2.6,1,5.06,5.06,0,0,1,1.22,3.62,5.94,5.94,0,0,1-.07,1h4.32v2.07Zm5.34-2.07a4.2,4.2,0,0,0,.09-1c0-1.56-.77-2.52-2.11-2.52s-2,.88-2,2.33a5.81,5.81,0,0,0,.1,1.21Z" transform="translate(-22 -17)"/>
    <path d="M534.46,247.19a5.79,5.79,0,0,0,.73-2.77c0-1.34-.63-2.09-1.56-2.09s-1.38.58-1.9,2c-.68,1.89-1.68,3.09-3.33,3.09-1.87,0-3.3-1.56-3.3-4a6,6,0,0,1,.58-2.75l1.68.51a4.85,4.85,0,0,0-.54,2.28c0,1.33.71,1.9,1.38,1.9.88,0,1.29-.66,1.89-2.19.75-2,1.75-3,3.4-3,1.84,0,3.43,1.39,3.43,4.35a6.82,6.82,0,0,1-.71,3.09Z" transform="translate(-22 -17)"/>
    <path d="M536.74,238.66H525.28v-2.38l4.91-3a31.25,31.25,0,0,1,3.84-2v0c-1.53.14-3,.19-4.76.19h-4v-1.94h11.46v2.16l-5,3a39.58,39.58,0,0,1-4,2.06l0,.05c1.48-.08,3-.1,4.88-.1h4.1Z" transform="translate(-22 -17)"/>
    <path d="M525.28,225.41h11.46v2.09H525.28Z" transform="translate(-22 -17)"/>
    <path d="M525.28,223.36v-6.61H527v4.52h3.16V217h1.72v4.22h4.86v2.09Z" transform="translate(-22 -17)"/>
    <path d="M525.28,215v-6.61H527V213h3.16v-4.22h1.72V213h4.86V215Z" transform="translate(-22 -17)"/>
    <path d="M531.65,200.32v4.32H535v-4.83h1.72v6.92H525.28v-6.66H527v4.57h3v-4.32Z" transform="translate(-22 -17)"/>
    <path d="M525.43,198.32a19.76,19.76,0,0,1-.24-3.16,5.3,5.3,0,0,1,.92-3.54,2.9,2.9,0,0,1,2.29-1,3.06,3.06,0,0,1,2.87,2.07h.05a2.91,2.91,0,0,1,2.21-1.6,22.85,22.85,0,0,0,3.2-.9v2.16a16.08,16.08,0,0,1-2.7.76c-1.49.32-2,.87-2,2.06v1.05h4.71v2.07Zm5.06-2.07V195c0-1.41-.75-2.29-1.89-2.29s-1.84.88-1.84,2.24a6,6,0,0,0,.1,1.29Z" transform="translate(-22 -17)"/>
  </g>
  <g>
    <path d="M567.27,312.72v-6.61H569v4.52h3.16v-4.22h1.72v4.22h4.86v2.09Z" transform="translate(-22 -17)"/>
    <path d="M567.42,304.41a18.05,18.05,0,0,1-.24-3.2,5.19,5.19,0,0,1,.93-3.38,3.24,3.24,0,0,1,2.53-1.12,3.47,3.47,0,0,1,2.6,1,5.06,5.06,0,0,1,1.22,3.62,5.94,5.94,0,0,1-.07,1h4.32v2.07Zm5.34-2.07a4.2,4.2,0,0,0,.09-1c0-1.56-.77-2.52-2.11-2.52s-2,.88-2,2.33a5.81,5.81,0,0,0,.1,1.21Z" transform="translate(-22 -17)"/>
    <path d="M569,290.56v3.26h-1.75v-8.65H569v3.3h9.71v2.09Z" transform="translate(-22 -17)"/>
    <path d="M567.42,284.16a19.76,19.76,0,0,1-.24-3.16,5.3,5.3,0,0,1,.92-3.54,2.9,2.9,0,0,1,2.29-1,3.06,3.06,0,0,1,2.87,2.07h.05a2.91,2.91,0,0,1,2.21-1.6,22.85,22.85,0,0,0,3.2-.9v2.16a16.08,16.08,0,0,1-2.7.76c-1.49.32-2,.87-2,2.06v1.05h4.71v2.07Zm5.06-2.07v-1.24c0-1.41-.75-2.29-1.89-2.29s-1.84.88-1.84,2.24a6,6,0,0,0,.1,1.29Z" transform="translate(-22 -17)"/>
    <path d="M575.48,272.42l3.25,1v2.16l-11.46-3.67v-2.67l11.46-3.72v2.24l-3.25,1Zm-1.58-3.28-2.82.9c-.7.22-1.48.41-2.14.58v0c.66.17,1.46.34,2.14.54l2.82.88Z" transform="translate(-22 -17)"/>
    <path d="M567.27,264.24v-6.61H569v4.52h3.16v-4.22h1.72v4.22h4.86v2.09Z" transform="translate(-22 -17)"/>
    <path d="M567.27,255.93v-6.61H569v4.52h3.16v-4.22h1.72v4.22h4.86v2.09Z" transform="translate(-22 -17)"/>
    <path d="M567.27,245.52h11.46v2.09H567.27Z" transform="translate(-22 -17)"/>
    <path d="M578.39,235.26a7.23,7.23,0,0,1,.51,3c0,3.64-2.28,5.85-5.76,5.85a5.76,5.76,0,0,1-6.05-6.12,6.59,6.59,0,0,1,.51-2.79l1.67.46a5.56,5.56,0,0,0-.44,2.24c0,2.33,1.46,4,4.22,4,2.52,0,4.13-1.48,4.13-4a5.84,5.84,0,0,0-.43-2.28Z" transform="translate(-22 -17)"/>
    <path d="M578.2,221.45a11.3,11.3,0,0,1,.65,3.69,6.17,6.17,0,0,1-1.53,4.49,5.67,5.67,0,0,1-4.21,1.6c-3.62,0-6-2.58-6-6.37a7.58,7.58,0,0,1,.54-3l1.68.46a6.15,6.15,0,0,0-.49,2.6A3.83,3.83,0,0,0,573,229a3.79,3.79,0,0,0,4.15-4,4,4,0,0,0-.24-1.58h-2.86v2h-1.65v-4Z" transform="translate(-22 -17)"/>
    <path d="M573.65,213.24v4.32H577v-4.83h1.72v6.92H567.27V213H569v4.57h3v-4.32Z" transform="translate(-22 -17)"/>
    <path d="M578.73,211.24H567.27v-2.38l4.91-3a31.25,31.25,0,0,1,3.84-2v0c-1.53.14-3,.19-4.76.19h-4v-1.94h11.46v2.16l-5,3a39.58,39.58,0,0,1-4,2.06l0,.05c1.48-.08,3-.1,4.88-.1h4.1Z" transform="translate(-22 -17)"/>
    <path d="M573.65,193.68V198H577v-4.83h1.72v6.92H567.27v-6.66H569V198h3v-4.32Z" transform="translate(-22 -17)"/>
    <path d="M567.42,191.67a19.76,19.76,0,0,1-.24-3.16,5.3,5.3,0,0,1,.92-3.54,2.9,2.9,0,0,1,2.29-1,3.06,3.06,0,0,1,2.87,2.07h.05a2.91,2.91,0,0,1,2.21-1.6,22.85,22.85,0,0,0,3.2-.9v2.16a16.08,16.08,0,0,1-2.7.76c-1.49.32-2,.87-2,2.06v1.05h4.71v2.07Zm5.06-2.07v-1.24c0-1.41-.75-2.29-1.89-2.29s-1.84.88-1.84,2.24a6,6,0,0,0,.1,1.29Z" transform="translate(-22 -17)"/>
    <path d="M575.48,179.92l3.25,1v2.16l-11.46-3.67v-2.67L578.73,173v2.24l-3.25,1Zm-1.58-3.28-2.82.9c-.7.22-1.48.41-2.14.58v0c.66.17,1.46.34,2.14.54l2.82.88Z" transform="translate(-22 -17)"/>
    <path d="M569,170.93v3.26h-1.75v-8.65H569v3.3h9.71v2.09Z" transform="translate(-22 -17)"/>
    <path d="M572.88,154.85c3.84,0,6,2.33,6,5.49s-2.46,5.27-5.83,5.27c-3.52,0-6-2.21-6-5.44S569.62,154.85,572.88,154.85Zm.17,8.55c2.33,0,4.18-1.17,4.18-3.18s-1.87-3.16-4.27-3.16c-2.16,0-4.2,1.07-4.2,3.16S570.69,163.4,573,163.4Z" transform="translate(-22 -17)"/>
    <path d="M567.42,153.39a19.76,19.76,0,0,1-.24-3.16,5.3,5.3,0,0,1,.92-3.54,2.9,2.9,0,0,1,2.29-1,3.06,3.06,0,0,1,2.87,2.07h.05a2.91,2.91,0,0,1,2.21-1.6,22.85,22.85,0,0,0,3.2-.9v2.16a16.08,16.08,0,0,1-2.7.76c-1.49.32-2,.87-2,2.06v1.05h4.71v2.07Zm5.06-2.07v-1.24c0-1.41-.75-2.29-1.89-2.29s-1.84.88-1.84,2.24a6,6,0,0,0,.1,1.29Z" transform="translate(-22 -17)"/>
  </g>
  <g>
    <path d="M609.27,279.83v-6.61H611v4.52h3.16v-4.22h1.72v4.22h4.86v2.09Z" transform="translate(-22 -17)"/>
    <path d="M609.42,271.52a18.05,18.05,0,0,1-.24-3.2,5.19,5.19,0,0,1,.93-3.38,3.24,3.24,0,0,1,2.53-1.12,3.47,3.47,0,0,1,2.6,1,5.06,5.06,0,0,1,1.22,3.62,5.94,5.94,0,0,1-.07,1h4.32v2.07Zm5.34-2.07a4.2,4.2,0,0,0,.09-1c0-1.56-.77-2.52-2.11-2.52s-2,.88-2,2.33a5.81,5.81,0,0,0,.1,1.21Z" transform="translate(-22 -17)"/>
    <path d="M614.88,249c3.84,0,6,2.33,6,5.49s-2.46,5.27-5.83,5.27c-3.52,0-6-2.21-6-5.44S611.62,249,614.88,249Zm.17,8.55c2.33,0,4.18-1.17,4.18-3.18s-1.87-3.16-4.27-3.16c-2.16,0-4.2,1.07-4.2,3.16S612.69,257.56,615,257.56Z" transform="translate(-22 -17)"/>
    <path d="M609.42,247.55a18,18,0,0,1-.24-3.2,5.19,5.19,0,0,1,.93-3.38,3.24,3.24,0,0,1,2.53-1.12,3.47,3.47,0,0,1,2.6,1,5.06,5.06,0,0,1,1.22,3.62,5.94,5.94,0,0,1-.07,1h4.32v2.07Zm5.34-2.07a4.2,4.2,0,0,0,.09-1c0-1.56-.77-2.52-2.11-2.52s-2,.88-2,2.33a5.81,5.81,0,0,0,.1,1.21Z" transform="translate(-22 -17)"/>
    <path d="M615.65,232v4.32H619v-4.83h1.72v6.92H609.27v-6.66H611v4.57h3V232Z" transform="translate(-22 -17)"/>
    <path d="M620.73,230H609.27v-2.38l4.91-3a31.25,31.25,0,0,1,3.84-2v0c-1.53.14-3,.19-4.76.19h-4v-1.94h11.46v2.16l-5,3a39.58,39.58,0,0,1-4,2.06l0,.05c1.48-.08,3-.1,4.88-.1h4.1Z" transform="translate(-22 -17)"/>
    <path d="M609.27,218.82v-6.61H611v4.52h3.16v-4.22h1.72v4.22h4.86v2.09Z" transform="translate(-22 -17)"/>
    <path d="M609.27,210.5v-2.09H619v-4.71h1.75v6.8Z" transform="translate(-22 -17)"/>
    <path d="M614.88,193c3.84,0,6,2.33,6,5.49s-2.46,5.27-5.83,5.27c-3.52,0-6-2.21-6-5.44S611.62,193,614.88,193Zm.17,8.55c2.33,0,4.18-1.17,4.18-3.18s-1.87-3.16-4.27-3.16c-2.16,0-4.2,1.07-4.2,3.16S612.69,201.51,615,201.51Z" transform="translate(-22 -17)"/>
    <path d="M620.73,189.7l-11.46,2.8v-2.23l5.2-1.09c1.39-.29,2.86-.56,4-.75v0c-1.21-.19-2.57-.51-4-.83l-5.19-1.24v-2.19l5.27-1.14c1.36-.29,2.63-.53,3.88-.7v0c-1.26-.2-2.57-.48-4-.78l-5.19-1.19v-2.12l11.46,3.08v2.24l-5.39,1.19a32.58,32.58,0,0,1-3.64.63v0c1.22.2,2.33.42,3.64.76l5.39,1.33Z" transform="translate(-22 -17)"/>
  </g>
  <g>
    <path d="M735.31,253.95v-6.61H737v4.52h3.16v-4.22h1.72v4.22h4.86v2.09Z" transform="translate(-22 -17)"/>
    <path d="M735.47,245.63a18.05,18.05,0,0,1-.24-3.2,5.19,5.19,0,0,1,.93-3.38,3.24,3.24,0,0,1,2.53-1.12,3.47,3.47,0,0,1,2.6,1,5.06,5.06,0,0,1,1.22,3.62,5.94,5.94,0,0,1-.07,1h4.32v2.07Zm5.34-2.07a4.2,4.2,0,0,0,.09-1c0-1.56-.77-2.52-2.11-2.52s-2,.88-2,2.33a5.81,5.81,0,0,0,.1,1.21Z" transform="translate(-22 -17)"/>
    <path d="M735.31,231.2h11.46v2.09H735.31Z" transform="translate(-22 -17)"/>
    <path d="M735.47,229.14a18.05,18.05,0,0,1-.24-3.2,5.19,5.19,0,0,1,.93-3.38,3.24,3.24,0,0,1,2.53-1.12,3.47,3.47,0,0,1,2.6,1,5.06,5.06,0,0,1,1.22,3.62,5.94,5.94,0,0,1-.07,1h4.32v2.07Zm5.34-2.07a4.2,4.2,0,0,0,.09-1c0-1.56-.77-2.52-2.11-2.52s-2,.88-2,2.33a5.81,5.81,0,0,0,.1,1.21Z" transform="translate(-22 -17)"/>
    <path d="M738.49,218.64l4.2-1.34c.73-.24,1.39-.41,2.07-.56v-.05c-.68-.15-1.33-.34-2.07-.56l-4.2-1.31V212.6l8.28,3.16v2.06l-8.28,3.08Z" transform="translate(-22 -17)"/>
    <path d="M746.77,207.45H744v5h-1.36l-6.88-4.5v-2.46h6.66v-1.43H744v1.43h2.8Zm-4.38,0h-3c-.63,0-1.27,0-1.92-.07v.07c.7.34,1.26.63,1.87,1l3,2,0,0Z" transform="translate(-22 -17)"/>
  </g>
  <g>
    <path d="M693.28,258.26v-6.61H695v4.52h3.16v-4.22h1.72v4.22h4.86v2.09Z" transform="translate(-22 -17)"/>
    <path d="M693.43,249.94a18.15,18.15,0,0,1-.24-3.2,5.19,5.19,0,0,1,.93-3.38,3.24,3.24,0,0,1,2.53-1.12,3.47,3.47,0,0,1,2.6,1,5.05,5.05,0,0,1,1.22,3.62,5.93,5.93,0,0,1-.07,1h4.32v2.07Zm5.34-2.07a4.21,4.21,0,0,0,.08-1c0-1.56-.76-2.52-2.11-2.52s-2,.88-2,2.33a5.79,5.79,0,0,0,.1,1.21Z" transform="translate(-22 -17)"/>
    <path d="M700.06,227.93c-1.48.07-3.26.15-4.81.14v.05c1.39.37,2.94.85,4.39,1.36l5,1.67v1.61l-4.9,1.53c-1.46.44-3,.85-4.45,1.16v0c1.5.05,3.32.12,4.88.2l4.61.25v2l-11.46-.76v-2.75l4.61-1.5c1.34-.41,2.7-.76,4-1.05v-.05c-1.24-.31-2.65-.7-4-1.14l-4.59-1.58v-2.72l11.46-.66v2Z" transform="translate(-22 -17)"/>
    <path d="M693.43,223.88a18.15,18.15,0,0,1-.24-3.2,5.19,5.19,0,0,1,.93-3.38,3.24,3.24,0,0,1,2.53-1.12,3.47,3.47,0,0,1,2.6,1,5.05,5.05,0,0,1,1.22,3.62,5.93,5.93,0,0,1-.07,1h4.32v2.07Zm5.34-2.07a4.21,4.21,0,0,0,.08-1c0-1.56-.76-2.52-2.11-2.52s-2,.88-2,2.33a5.79,5.79,0,0,0,.1,1.21Z" transform="translate(-22 -17)"/>
    <path d="M693.28,214.72v-2.09H703v-4.71h1.75v6.8Z" transform="translate(-22 -17)"/>
    <path d="M702.46,206.73a5.79,5.79,0,0,0,.73-2.77c0-1.34-.63-2.09-1.56-2.09s-1.38.58-1.9,2C699,205.8,698,207,696.39,207c-1.87,0-3.3-1.56-3.3-4a6,6,0,0,1,.58-2.75l1.68.51a4.84,4.84,0,0,0-.54,2.28c0,1.33.71,1.9,1.38,1.9.88,0,1.29-.66,1.89-2.19.75-2,1.75-3,3.4-3,1.84,0,3.43,1.39,3.43,4.35a6.8,6.8,0,0,1-.71,3.09Z" transform="translate(-22 -17)"/>
  </g>
  <g>
    <path d="M651.27,265.38v-6.61H653v4.52h3.16v-4.22h1.72v4.22h4.86v2.09Z" transform="translate(-22 -17)"/>
    <path d="M651.43,257.07a18.05,18.05,0,0,1-.24-3.2,5.19,5.19,0,0,1,.93-3.38,3.24,3.24,0,0,1,2.53-1.12,3.47,3.47,0,0,1,2.6,1,5.06,5.06,0,0,1,1.22,3.62,5.94,5.94,0,0,1-.07,1h4.32v2.07Zm5.34-2.07a4.2,4.2,0,0,0,.09-1c0-1.56-.77-2.52-2.11-2.52s-2,.88-2,2.33a5.81,5.81,0,0,0,.1,1.21Z" transform="translate(-22 -17)"/>
    <path d="M651.43,244.72a17.41,17.41,0,0,1-.24-3,5.44,5.44,0,0,1,.73-3.28,2.42,2.42,0,0,1,2.14-1.19,2.66,2.66,0,0,1,2.48,1.9h0a2.89,2.89,0,0,1,2.84-2.31,3,3,0,0,1,2.36,1.1c.71.82,1.07,2.16,1.07,4.25a20.21,20.21,0,0,1-.15,2.57Zm4.52-2.07v-1.07c0-1.45-.68-2.26-1.65-2.26s-1.56.82-1.56,2.14a5.73,5.73,0,0,0,.08,1.19Zm5.27,0a9.43,9.43,0,0,0,.05-1.11c0-1.34-.51-2.53-1.92-2.53s-1.87,1.16-1.87,2.6v1Z" transform="translate(-22 -17)"/>
    <path d="M651.43,235.27a19.76,19.76,0,0,1-.24-3.16,5.3,5.3,0,0,1,.92-3.54,2.9,2.9,0,0,1,2.29-1,3.06,3.06,0,0,1,2.87,2.07h.05a2.91,2.91,0,0,1,2.21-1.6,22.85,22.85,0,0,0,3.2-.9v2.16a16.08,16.08,0,0,1-2.7.76c-1.49.32-2,.87-2,2.06v1.05h4.71v2.07Zm5.06-2.07V232c0-1.41-.75-2.29-1.89-2.29s-1.84.88-1.84,2.24a6,6,0,0,0,.1,1.29Z" transform="translate(-22 -17)"/>
    <path d="M651.27,223.85h11.46v2.09H651.27Z" transform="translate(-22 -17)"/>
    <path d="M651.43,221.79a21,21,0,0,1-.24-3.33,7,7,0,0,1,1.33-4.67,5.12,5.12,0,0,1,4.21-1.79,5.93,5.93,0,0,1,4.55,1.79,7.65,7.65,0,0,1,1.56,5.18,23.05,23.05,0,0,1-.15,2.82Zm9.71-2.09a7.81,7.81,0,0,0,.05-1.16c0-2.72-1.48-4.33-4.38-4.33-2.53,0-4,1.45-4,4.06a6.66,6.66,0,0,0,.12,1.43Z" transform="translate(-22 -17)"/>
    <path d="M662.2,201.34a11.3,11.3,0,0,1,.65,3.69,6.17,6.17,0,0,1-1.53,4.49,5.67,5.67,0,0,1-4.21,1.6c-3.62,0-6-2.58-6-6.37a7.58,7.58,0,0,1,.54-3l1.68.46a6.15,6.15,0,0,0-.49,2.6,3.83,3.83,0,0,0,4.11,4.17,3.79,3.79,0,0,0,4.15-4,4,4,0,0,0-.24-1.58h-2.86v2h-1.65v-4Z" transform="translate(-22 -17)"/>
    <path d="M657.65,193.13v4.32H661v-4.83h1.72v6.92H651.27v-6.66H653v4.57h3v-4.32Z" transform="translate(-22 -17)"/>
  </g>
  <g>
    <path d="M61.58,173.08v11.46H59.49V173.08Z" transform="translate(-22 -17)"/>
    <path d="M63.65,178.72c0-1,0-1.75-.07-2.46h1.84l.1,1.24h.05a3,3,0,0,1,2.63-1.43c1.44,0,2.94.93,2.94,3.55v4.91H69.06v-4.67c0-1.19-.44-2.09-1.58-2.09A1.75,1.75,0,0,0,65.84,179a2.14,2.14,0,0,0-.08.68v4.86H63.65Z" transform="translate(-22 -17)"/>
    <path d="M78.39,173.08v11.46H76.3V173.08Z" transform="translate(-22 -17)"/>
    <path d="M80.46,178.72c0-1,0-1.75-.07-2.46h1.84l.1,1.24h.05A3,3,0,0,1,85,176.07c1.44,0,2.94.93,2.94,3.55v4.91H85.87v-4.67c0-1.19-.44-2.09-1.58-2.09A1.75,1.75,0,0,0,82.66,179a2.14,2.14,0,0,0-.08.68v4.86H80.46Z" transform="translate(-22 -17)"/>
    <path d="M92.16,173.89v2.36h2v1.56h-2v3.65c0,1,.27,1.53,1.07,1.53a3.1,3.1,0,0,0,.82-.1l0,1.6a4.59,4.59,0,0,1-1.51.2,2.42,2.42,0,0,1-1.8-.68,3.3,3.3,0,0,1-.65-2.31v-3.89H88.93v-1.56h1.19v-1.87Z" transform="translate(-22 -17)"/>
    <path d="M96.77,181a2.25,2.25,0,0,0,2.55,2.14,6.22,6.22,0,0,0,2.29-.37l.31,1.45a7.79,7.79,0,0,1-2.89.51,3.92,3.92,0,0,1-4.27-4.18c0-2.29,1.39-4.45,4-4.45s3.57,2.21,3.57,4a5.24,5.24,0,0,1-.07.88Zm3.64-1.46a1.78,1.78,0,0,0-1.72-2,2,2,0,0,0-1.92,2Z" transform="translate(-22 -17)"/>
    <path d="M103.72,178.93c0-1.12,0-1.92-.07-2.67h1.82l.07,1.58h.07a2.47,2.47,0,0,1,2.26-1.77,2.19,2.19,0,0,1,.49.05v2a2.9,2.9,0,0,0-.61-.07,1.84,1.84,0,0,0-1.87,1.58,3.67,3.67,0,0,0-.07.65v4.28h-2.09Z" transform="translate(-22 -17)"/>
    <path d="M110.14,184.53v-6.71H109v-1.56h1.12v-.36a3.87,3.87,0,0,1,1-2.82,3.16,3.16,0,0,1,2.16-.8,4.05,4.05,0,0,1,1.34.2l-.15,1.62a2.43,2.43,0,0,0-.88-.15c-1,0-1.39.87-1.39,1.89v.42H114v1.56h-1.8v6.71Z" transform="translate(-22 -17)"/>
    <path d="M119.65,184.53l-.14-.92h-.05a3.07,3.07,0,0,1-2.45,1.1,2.46,2.46,0,0,1-2.6-2.46c0-2.09,1.85-3.15,4.91-3.13V179c0-.54-.22-1.45-1.68-1.45a4.38,4.38,0,0,0-2.23.61L115,176.8a6,6,0,0,1,3-.73c2.65,0,3.42,1.68,3.42,3.48v3a13.28,13.28,0,0,0,.12,2Zm-.27-4c-1.48,0-2.89.29-2.89,1.55a1.1,1.1,0,0,0,1.19,1.19,1.69,1.69,0,0,0,1.63-1.14,1.51,1.51,0,0,0,.07-.46Z" transform="translate(-22 -17)"/>
    <path d="M129.37,184.28a6,6,0,0,1-2.35.42,4,4,0,0,1-4.27-4.22,4.28,4.28,0,0,1,4.61-4.42,5.23,5.23,0,0,1,2,.39L129,178a3.7,3.7,0,0,0-1.58-.32,2.68,2.68,0,0,0,0,5.35,4.09,4.09,0,0,0,1.65-.32Z" transform="translate(-22 -17)"/>
    <path d="M131.9,181a2.25,2.25,0,0,0,2.55,2.14,6.22,6.22,0,0,0,2.29-.37l.31,1.45a7.79,7.79,0,0,1-2.89.51,3.92,3.92,0,0,1-4.27-4.18c0-2.29,1.39-4.45,4-4.45s3.57,2.21,3.57,4a5.24,5.24,0,0,1-.07.88Zm3.64-1.46a1.78,1.78,0,0,0-1.72-2,2,2,0,0,0-1.92,2Z" transform="translate(-22 -17)"/>
  </g>
  <g>
    <path d="M63.44,420.69c0,3.84-2.33,6-5.49,6s-5.27-2.46-5.27-5.83c0-3.52,2.21-6,5.44-6S63.44,417.42,63.44,420.69Zm-8.55.17c0,2.33,1.17,4.18,3.18,4.18s3.16-1.87,3.16-4.27c0-2.16-1.07-4.2-3.16-4.2S54.89,418.49,54.89,420.86Z" transform="translate(-22 -17)"/>
    <path d="M72.29,424.05c0,1,0,1.8.07,2.48H70.53l-.1-1.26h0a3,3,0,0,1-2.65,1.44c-1.51,0-2.89-.9-2.89-3.6v-4.86h2.09v4.5c0,1.38.44,2.26,1.55,2.26a1.76,1.76,0,0,0,1.6-1.12,1.89,1.89,0,0,0,.12-.65v-5h2.09Z" transform="translate(-22 -17)"/>
    <path d="M76.61,415.89v2.36h2v1.56h-2v3.65c0,1,.27,1.53,1.07,1.53a3.1,3.1,0,0,0,.82-.1l0,1.6a4.59,4.59,0,0,1-1.51.2,2.42,2.42,0,0,1-1.8-.68,3.3,3.3,0,0,1-.65-2.31v-3.89H73.38v-1.56h1.19v-1.87Z" transform="translate(-22 -17)"/>
    <path d="M85.2,415.08v11.46H83.11V415.08Z" transform="translate(-22 -17)"/>
    <path d="M87.27,420.72c0-1,0-1.75-.07-2.46H89l.1,1.24h.05a3,3,0,0,1,2.63-1.43c1.44,0,2.94.93,2.94,3.55v4.91H92.68v-4.67c0-1.19-.44-2.09-1.58-2.09A1.75,1.75,0,0,0,89.46,421a2.14,2.14,0,0,0-.08.68v4.86H87.27Z" transform="translate(-22 -17)"/>
    <path d="M99,415.89v2.36h2v1.56H99v3.65c0,1,.27,1.53,1.07,1.53a3.1,3.1,0,0,0,.82-.1l0,1.6a4.59,4.59,0,0,1-1.51.2,2.42,2.42,0,0,1-1.8-.68,3.3,3.3,0,0,1-.65-2.31v-3.89H95.74v-1.56h1.19v-1.87Z" transform="translate(-22 -17)"/>
    <path d="M103.57,423a2.25,2.25,0,0,0,2.55,2.14,6.22,6.22,0,0,0,2.29-.37l.31,1.45a7.79,7.79,0,0,1-2.89.51,3.92,3.92,0,0,1-4.27-4.18c0-2.29,1.39-4.45,4-4.45s3.57,2.21,3.57,4a5.24,5.24,0,0,1-.07.88Zm3.64-1.46a1.78,1.78,0,0,0-1.72-2,2,2,0,0,0-1.92,2Z" transform="translate(-22 -17)"/>
    <path d="M110.53,420.93c0-1.12,0-1.92-.07-2.67h1.82l.07,1.58h.07a2.47,2.47,0,0,1,2.26-1.77,2.19,2.19,0,0,1,.49.05v2a2.9,2.9,0,0,0-.61-.07,1.84,1.84,0,0,0-1.87,1.58,3.67,3.67,0,0,0-.07.65v4.28h-2.09Z" transform="translate(-22 -17)"/>
    <path d="M117,426.53v-6.71h-1.12v-1.56H117v-.36a3.87,3.87,0,0,1,1-2.82,3.16,3.16,0,0,1,2.16-.8,4.05,4.05,0,0,1,1.34.2l-.15,1.62a2.43,2.43,0,0,0-.88-.15c-1,0-1.39.87-1.39,1.89v.42h1.82v1.56H119v6.71Z" transform="translate(-22 -17)"/>
    <path d="M126.46,426.53l-.14-.92h-.05a3.07,3.07,0,0,1-2.45,1.1,2.46,2.46,0,0,1-2.6-2.46c0-2.09,1.85-3.15,4.91-3.13V421c0-.54-.22-1.45-1.68-1.45a4.38,4.38,0,0,0-2.23.61l-.41-1.36a6,6,0,0,1,3-.73c2.65,0,3.42,1.68,3.42,3.48v3a13.28,13.28,0,0,0,.12,2Zm-.27-4c-1.48,0-2.89.29-2.89,1.55a1.1,1.1,0,0,0,1.19,1.19,1.69,1.69,0,0,0,1.63-1.14,1.51,1.51,0,0,0,.07-.46Z" transform="translate(-22 -17)"/>
    <path d="M136.18,426.28a6,6,0,0,1-2.35.42,4,4,0,0,1-4.27-4.22,4.28,4.28,0,0,1,4.61-4.42,5.23,5.23,0,0,1,2,.39l-.37,1.56a3.7,3.7,0,0,0-1.58-.32,2.68,2.68,0,0,0,0,5.35,4.09,4.09,0,0,0,1.65-.32Z" transform="translate(-22 -17)"/>
    <path d="M138.71,423a2.25,2.25,0,0,0,2.55,2.14,6.22,6.22,0,0,0,2.29-.37l.31,1.45a7.79,7.79,0,0,1-2.89.51,3.92,3.92,0,0,1-4.27-4.18c0-2.29,1.39-4.45,4-4.45s3.57,2.21,3.57,4a5.24,5.24,0,0,1-.07.88Zm3.64-1.46a1.78,1.78,0,0,0-1.72-2,2,2,0,0,0-1.92,2Z" transform="translate(-22 -17)"/>
  </g>
  <polygon points="152 404 161.18 400.03 170.35 396.05 170.35 404 170.35 411.95 161.18 407.97 152 404"/>
  <polygon points="246 161.5 236.82 165.47 227.65 169.45 227.65 161.5 227.65 153.55 236.82 157.53 246 161.5"/>
  <polygon points="488 161.5 478.82 165.47 469.65 169.45 469.65 161.5 469.65 153.55 478.82 157.53 488 161.5"/>
  <polygon points="833 161.5 823.82 165.47 814.65 169.45 814.65 161.5 814.65 153.55 823.82 157.53 833 161.5"/>
  <polygon points="614 404.23 610.03 395.05 606.05 385.88 614 385.88 621.95 385.88 617.97 395.05 614 404.23"/>
</svg>
